<svg width="226" height="60" viewBox="0 0 226 60" fill="none" xmlns="http://www.w3.org/2000/svg">
<path d="M99.7618 16.3696L95.7195 8.32887L91.1789 16.3696L82.7557 0.0895996H88.1625L93.0441 9.45212L94.7765 6.47829L91.5469 0.0895996H96.9536L101.31 8.5713L105.248 0.0895996H107.112L99.763 16.3696H99.7618Z" fill="#0D331E"/>
<path d="M118.579 11.2357H110.89L108.396 15.9505H106.375L114.486 0.0895996H118.528L126.612 15.9505H120.943L118.581 11.2357H118.579ZM117.74 9.53984L114.748 3.6141L111.677 9.53984H117.739H117.74Z" fill="#0D331E"/>
<path d="M140.259 0.0895996H142.28L134.092 16.2148L125.876 0.0895996H131.282L135.718 8.79059L140.259 0.0895996Z" fill="#0D331E"/>
<path d="M148.918 14.2546H157.632V15.9505H143.616V0.0895996H157.368V1.78545H148.917V6.94002H156.528V8.63587H148.917V14.2534L148.918 14.2546Z" fill="#0D331E"/>
<path d="M165.059 8.23993V15.9505H159.757V0.0895996H170.492C172.67 0.0895996 174.298 0.662194 175.347 1.80738C176.16 2.73206 176.475 3.74567 176.238 4.847C176.029 5.94833 175.347 6.80723 174.217 7.40297C173.194 7.95363 171.934 8.23993 170.491 8.23993H165.058H165.059ZM165.059 1.82931V6.54408H168.288C169.521 6.54408 170.545 5.88377 170.86 4.89208C171.122 4.05512 170.991 3.3278 170.466 2.73328C169.941 2.13876 169.206 1.83053 168.288 1.83053H165.059V1.82931Z" fill="#0D331E"/>
<path d="M183.614 14.2546H191.356V15.9505H178.312V0.0895996H183.614V14.2546Z" fill="#0D331E"/>
<path d="M200.91 16.1052C198.364 16.0833 196.369 15.5545 194.9 14.519C193.431 13.4615 192.695 12.1616 192.695 10.6424V0.0895996H197.997V11.7425C197.997 12.9986 199.125 14.0341 201.121 14.3204C202.59 14.5628 203.797 14.4081 204.768 13.8574C205.739 13.3068 206.237 12.6014 206.237 11.6986V0.0895996H208.259V10.5535C208.259 13.9244 206.264 15.708 202.065 16.0613C201.567 16.0833 201.199 16.1052 200.91 16.1052Z" fill="#0D331E"/>
<path d="M210.751 13.241L210.358 12.7342L212.168 11.963C212.43 12.6014 213.034 13.174 213.978 13.6369C214.424 13.8355 214.792 13.9671 215.133 14.056C217.941 14.7833 219.517 14.1657 219.91 12.5137C220.094 11.7644 219.831 11.0371 219.149 10.3329C218.755 9.91386 218.125 9.53984 217.285 9.25354L217.153 9.18776L215.473 8.72481L214.764 8.48237C212.638 7.7112 211.615 6.96195 211.063 5.88255C210.906 5.61818 210.801 5.35381 210.748 5.06752C210.406 3.6141 210.905 2.40191 212.191 1.43215C213.48 0.441686 215.501 -0.0200445 218.231 0.00066637C220.121 0.0225955 221.774 0.463615 223.166 1.36636C223.611 1.65266 224.005 1.96089 224.346 2.31419L222.64 3.26202C222.168 2.5347 221.381 2.07297 220.305 1.85246C218.704 1.50038 217.522 1.65388 216.762 2.31541C215.371 3.54953 216.001 4.65086 218.679 5.6194L219.361 5.83991L220.306 6.17006C222.064 6.78652 223.271 7.40419 223.981 8.04257C224.69 8.65902 225.135 9.49598 225.319 10.5315C225.581 12.1835 225.057 13.5054 223.744 14.5409C222.458 15.5764 220.49 16.0833 217.839 16.0833C216.422 16.0833 215.11 15.8408 213.903 15.3779C212.616 14.8711 211.567 14.1437 210.754 13.241H210.751Z" fill="#0D331E"/>
<path d="M77.0663 37.9454H67.755L64.736 43.8589H62.2885L72.1091 23.9643H77.003L86.7919 43.8589H79.9268L77.0663 37.9454ZM76.049 35.8183L72.4259 28.3855L68.7077 35.8183H76.049Z" fill="#0D331E"/>
<path d="M108.592 26.4777L108.75 26.6714L106.875 27.9981L106.749 27.8604L106.622 27.7776C106.272 27.4742 105.828 27.1977 105.255 26.8931C104.715 26.6446 104.269 26.4789 103.888 26.368C101.059 25.5396 98.7713 25.7881 96.9597 27.1136C95.1481 28.4123 94.2588 30.6503 94.2588 33.8276C94.2588 37.0049 95.0848 39.1052 96.738 40.4867C98.4229 41.8683 100.551 42.2825 103.157 41.7306C104.937 41.3432 106.239 40.7353 107.067 39.9068L107.162 39.796L107.288 39.6583L109.163 41.0398L108.973 41.2055C108.91 41.2603 108.847 41.3164 108.783 41.3432C107.48 42.3105 106.114 43.0013 104.652 43.4703C103.858 43.7188 103.032 43.8845 102.141 43.9674C98.6458 44.3268 95.6257 43.8565 93.0831 42.5578C90.5406 41.2591 88.824 39.3805 87.9663 36.9488C87.2353 34.9313 87.2353 32.9419 87.9663 30.9256C88.7606 28.6876 90.2859 26.9187 92.4789 25.62C94.7034 24.2933 97.341 23.6585 100.36 23.7414C102.934 23.7962 105.032 24.2665 106.621 25.1229C107.32 25.4823 107.924 25.8965 108.432 26.3388L108.591 26.4764L108.592 26.4777Z" fill="#0D331E"/>
<path d="M124.387 37.9454H115.076L112.057 43.8589H109.609L119.43 23.9643H124.324L134.113 43.8589H127.247L124.387 37.9454ZM123.37 35.8183L119.747 28.3855L116.028 35.8183H123.37Z" fill="#0D331E"/>
<path d="M153.212 42.0071C151.177 43.251 148.699 43.8589 145.775 43.8589H135.733V23.9631H145.775C154.197 23.9631 159.759 30.1252 157.407 36.8672C156.676 39.0504 155.278 40.7633 153.213 42.0071H153.212ZM142.152 26.0915V41.7306H145.775C147.364 41.7306 148.699 41.0678 149.811 39.7131C150.924 38.3596 151.496 36.425 151.496 33.9104C151.496 31.3959 150.924 29.4893 149.811 28.1357C148.699 26.7822 147.364 26.0915 145.775 26.0915H142.152Z" fill="#0D331E"/>
<path d="M167.988 41.7306H178.54V43.8577H161.569V23.9631H178.222V26.0902H167.988V32.5557H177.205V34.6828H167.988V41.7294V41.7306Z" fill="#0D331E"/>
<path d="M190.997 43.8577L183.56 30.1252V43.8577H181.113V23.9631H186.961L193.095 35.7342L199.324 23.9631H204.885V43.8577H198.465V30.1252L191.696 43.8577H190.997Z" fill="#0D331E"/>
<path d="M219.631 43.8577H213.084V33.7728L206.251 23.9631H212.798L218.01 31.5067L222.935 23.9631H225.383L219.63 33.054V43.8577H219.631Z" fill="#0D331E"/>
<path d="M79.6734 0.000663757L51.5128 43.8114L39.4725 27.0868L28.4287 43.8114L21.0763 33.3001L42.7411 0.000663757H55.9193L45.0766 17.0969L50.3152 23.7974L66.2857 0.000663757H79.6734Z" fill="#F3CB1E"/>
<path d="M34.8149 0.000663757L17.056 26.6458L0 0.000663757H34.8149Z" fill="#0B5844"/>
<path d="M19.2684 53.9926C19.696 53.9926 20.0603 54.1303 20.5878 54.458C20.7888 53.9171 20.9277 53.2263 21.0154 52.6233C21.0909 52.1079 21.292 50.3365 21.5429 49.4448C21.9827 47.8622 22.9878 46.505 24.1817 46.505C25.149 46.505 25.7777 47.4102 25.7777 48.5152C25.7777 49.8224 24.9103 51.3672 23.5787 52.0957L23.4154 51.8691C24.345 51.2539 24.8104 49.7956 24.8104 48.7784C24.8104 48.0376 24.5594 47.1069 23.8808 47.1069C23.3533 47.1069 22.9634 47.6478 22.6991 49.4569C22.5358 50.5631 22.4981 51.5682 22.1959 52.6988C22.0205 53.3652 21.7062 54.2448 21.253 54.91C22.1959 55.5886 22.4713 55.814 23.1754 56.3049C24.2183 57.0335 24.9346 57.4867 25.601 57.4867C26.0408 57.4867 26.455 57.2856 26.7316 56.9835L26.9582 57.1845C26.3551 58.0385 25.6388 58.5539 24.8847 58.5539C24.1805 58.5539 23.5397 58.1019 22.4591 57.31C22.0948 57.0456 21.404 56.4804 20.4988 55.7396C20.0469 56.1295 19.5059 56.3683 18.8907 56.3683C18.0489 56.3683 17.4202 55.9285 17.4202 55.3376C17.4202 54.6091 18.3632 53.9926 19.2672 53.9926H19.2684ZM19.1173 55.8651C19.4694 55.8651 19.7837 55.7019 20.0469 55.3876C19.3427 54.86 18.9285 54.6213 18.5764 54.6213C18.2243 54.6213 18.111 54.8345 18.111 55.0489C18.111 55.4387 18.563 55.8651 19.1161 55.8651H19.1173Z" fill="#0D331E"/>
<path d="M25.8898 51.4038C26.3296 51.0395 26.8827 50.7751 27.398 50.7751C28.001 50.7751 28.3775 51.1394 28.3775 51.6803C28.3775 52.1457 28.0888 52.6233 27.6733 52.9741C27.2335 53.3506 26.4928 53.7027 25.8386 53.8659C25.9141 54.9343 26.4295 55.6251 27.1324 55.6251C27.9864 55.6251 29.0049 54.5823 29.4447 52.2821L29.7968 52.3199C29.2937 55.0964 27.9621 56.2282 26.7438 56.2282C25.6887 56.2282 24.6581 55.3985 24.6581 53.9536C24.6581 53.0862 25.0345 52.1067 25.8898 51.4025V51.4038ZM27.4102 51.969C27.4102 51.6048 27.2469 51.3916 26.9582 51.3916C26.6061 51.3916 26.3052 51.6937 26.1042 52.1579C25.9409 52.5477 25.8532 53.0375 25.8398 53.4395C26.4928 53.3018 27.4102 52.8486 27.4102 51.969Z" fill="#0D331E"/>
<path d="M28.7418 54.2314C28.7418 53.3262 29.106 52.4344 29.6713 51.8058C30.211 51.2027 30.9907 50.7885 31.8581 50.7885C32.3857 50.7885 32.8888 50.9396 33.3664 51.2027C33.2287 51.9946 33.0143 53.3384 33.0143 54.218C33.0143 54.9965 33.1775 55.6373 33.5296 55.6373C33.9438 55.6373 34.5347 54.7321 34.9745 52.2821L35.3266 52.3199C34.7735 55.4607 33.9816 56.2282 33.2031 56.2282C32.5367 56.2282 31.9093 55.6751 31.8204 54.4812H31.7948C31.4049 55.6629 30.8518 56.2282 30.1866 56.2282C29.4325 56.2282 28.7418 55.4875 28.7418 54.2302V54.2314ZM31.5182 54.1303C31.7448 53.4261 31.9702 52.4088 32.1091 51.6681C31.8703 51.5049 31.5816 51.4172 31.305 51.4172C30.9785 51.4172 30.652 51.5305 30.3998 51.7558C30.1111 52.2968 29.9101 53.1386 29.9101 53.9427C29.9101 54.8101 30.1489 55.5886 30.5509 55.5886C30.853 55.5886 31.1917 55.1488 31.5182 54.1315V54.1303Z" fill="#0D331E"/>
<path d="M34.609 55.3875C34.609 54.7211 34.9733 53.0131 34.9733 51.7315C34.9733 51.4927 34.9611 51.3416 34.9355 51.1662C35.1865 51.0029 35.6397 50.8019 35.8773 50.8019C36.1538 50.8019 36.2038 51.0906 36.2038 51.3928C36.2038 51.8959 36.0405 52.6367 35.9272 53.0765L35.965 53.0886C36.4547 51.7315 36.9956 50.7897 37.7242 50.7897C38.2139 50.7897 38.5027 51.1284 38.5027 51.5183C38.5027 51.9081 38.1762 52.1969 37.7607 52.3479C37.673 52.0336 37.5341 51.8704 37.3209 51.8704C36.9567 51.8704 36.5546 52.3857 36.2281 53.2897C35.9394 54.0937 35.7883 54.9989 35.7506 56.0418C35.4862 56.1429 35.223 56.255 35.0598 56.255C34.7199 56.255 34.6078 55.7652 34.6078 55.3875H34.609Z" fill="#0D331E"/>
<path d="M38.7427 54.4824C38.7427 53.3762 38.9815 52.2334 39.057 51.165C39.308 51.0017 39.7733 50.8007 40.0243 50.8007C40.2131 50.8007 40.3009 50.914 40.3009 51.1406C40.3009 51.4549 40.1376 52.1579 40.0121 52.9753C39.9622 53.3152 39.9244 53.6539 39.8988 53.9183H39.9366C40.3264 52.0592 41.206 50.8896 42.2111 50.7398C42.7009 50.8653 43.1163 51.1162 43.4172 51.5061C43.2418 52.3223 42.9774 53.2275 42.9774 54.2326C42.9774 55.0367 43.1407 55.6397 43.4928 55.6397C43.8948 55.6397 44.4857 54.7857 44.9377 52.2846L45.2897 52.3223C44.7245 55.4765 43.9326 56.2172 43.1407 56.2172C42.4499 56.2172 41.7835 55.6263 41.7835 54.2314C41.7835 53.2385 42.0722 52.1457 42.0722 51.8192C42.0722 51.6559 42.0223 51.5171 41.8213 51.5171C41.6702 51.5171 41.5191 51.6048 41.3693 51.7437C41.055 52.058 40.7407 52.6111 40.5153 53.2641C40.2265 54.1059 40.0633 55.161 40.0755 55.9407C39.7733 56.1039 39.4602 56.1916 39.3214 56.1916C38.806 56.1916 38.7439 55.0732 38.7439 54.4824H38.7427Z" fill="#0D331E"/>
<path d="M45.0631 51.165C45.3141 51.0017 45.7795 50.8007 46.0305 50.8007C46.2193 50.8007 46.307 50.914 46.307 51.1406C46.307 51.3294 46.2193 51.7814 46.1316 52.2968C46.0183 52.9498 45.8928 53.7295 45.8928 54.3703C45.8928 55.0111 46.0439 55.6397 46.3959 55.6397C46.8102 55.6397 47.401 54.7857 47.853 52.2846L48.2051 52.3224C47.6398 55.4631 46.8601 56.2172 46.056 56.2172C45.3397 56.2172 44.7244 55.6263 44.7244 54.3325C44.7244 53.4407 44.9632 52.2346 45.0644 51.1662L45.0631 51.165ZM45.4652 49.0159C45.4652 48.6017 45.7795 48.2752 46.1937 48.2752C46.6079 48.2752 46.9344 48.6017 46.9344 49.0159C46.9344 49.4301 46.6079 49.7445 46.1937 49.7445C45.7795 49.7445 45.4652 49.418 45.4652 49.0159Z" fill="#0D331E"/>
<path d="M47.6508 54.4824C47.6508 53.3762 47.8896 52.2334 47.9651 51.165C48.2161 51.0017 48.6814 50.8007 48.9324 50.8007C49.1212 50.8007 49.209 50.914 49.209 51.1406C49.209 51.4549 49.0457 52.1579 48.9202 52.9753C48.8703 53.3152 48.8325 53.6539 48.8069 53.9183H48.8447C49.2345 52.0592 50.1142 50.8896 51.1192 50.7398C51.609 50.8653 52.0244 51.1162 52.3253 51.5061C52.1499 52.3223 51.8855 53.2275 51.8855 54.2326C51.8855 55.0367 52.0488 55.6397 52.4009 55.6397C52.8029 55.6397 53.3938 54.7857 53.8458 52.2846L54.1978 52.3223C53.6326 55.4765 52.8407 56.2172 52.0488 56.2172C51.358 56.2172 50.6916 55.6263 50.6916 54.2314C50.6916 53.2385 50.9804 52.1457 50.9804 51.8192C50.9804 51.6559 50.9304 51.5171 50.7294 51.5171C50.5783 51.5171 50.4273 51.6048 50.2774 51.7437C49.9631 52.058 49.6488 52.6111 49.4234 53.2641C49.1346 54.1059 48.9714 55.161 48.9836 55.9407C48.6814 56.1039 48.3683 56.1916 48.2295 56.1916C47.7141 56.1916 47.652 55.0732 47.652 54.4824H47.6508Z" fill="#0D331E"/>
<path d="M53.4425 56.8824C53.2293 57.109 53.1404 57.3721 53.1404 57.6986C53.1404 58.6038 53.8068 59.3823 54.5974 59.3823C55.1505 59.3823 55.5026 59.0059 55.7158 58.5027C56.1934 57.4099 56.1556 55.4875 56.219 54.6079L56.1934 54.5957C55.8291 55.6641 55.2638 56.1782 54.6352 56.1782C53.8811 56.1782 53.1781 55.4497 53.1781 54.1924C53.1781 53.3384 53.5046 52.471 54.0577 51.8423C54.5853 51.2393 55.3516 50.7873 56.219 50.7873C56.7587 50.7873 57.3252 50.9627 57.7394 51.2527C57.5128 52.6732 57.3374 54.5445 57.1485 55.814C56.9219 57.3466 56.6588 58.2018 56.169 58.8426C55.6537 59.5212 54.8374 59.9988 54.0577 59.9988C53.0782 59.9988 52.3485 59.2325 52.3485 58.3784C52.3485 57.7376 52.7505 57.109 53.2914 56.7204L53.4425 56.8836V56.8824ZM55.9936 54.0426C56.1946 53.3762 56.3579 52.4722 56.4212 51.6681C56.2202 51.4927 55.9558 51.4038 55.7049 51.4038C55.4539 51.4038 55.1396 51.4793 54.9008 51.6803C54.6242 52.0446 54.3477 52.9498 54.3477 53.8793C54.3477 54.8089 54.6364 55.5508 54.9885 55.5508C55.2772 55.5508 55.6793 55.0854 55.9936 54.0426Z" fill="#0D331E"/>
<path d="M60.7047 51.2917L60.0005 51.3295C59.9628 51.2539 59.9506 51.1784 59.9506 51.1029C59.9506 51.0395 59.9628 50.9518 59.9762 50.914L60.7802 50.8763C60.9812 49.6945 61.019 49.3558 61.1189 48.8283C61.3955 48.6529 61.873 48.4385 62.124 48.4385C62.2994 48.4385 62.375 48.5262 62.375 48.7028C62.375 48.9794 62.1618 49.9089 61.9851 50.8141L63.4178 50.7008C63.4556 50.7642 63.4812 50.8385 63.4812 50.914C63.4812 50.9896 63.4556 51.0773 63.3934 51.1784L61.8986 51.2417C61.7475 52.1457 61.6342 53.0509 61.6342 53.805C61.6342 55.0866 61.923 55.6641 62.3506 55.6641C62.9037 55.6641 63.67 54.6968 64.0842 52.2846L64.4363 52.3224C63.8332 55.8529 62.6515 56.2306 62.0107 56.2306C61.3065 56.2306 60.3904 55.7786 60.3904 53.9317C60.3904 53.1776 60.5414 52.2359 60.7047 51.2929V51.2917Z" fill="#0D331E"/>
<path d="M64.9894 51.3916L65.1149 51.6425C64.6873 51.969 64.5496 52.6598 64.5496 53.2884C64.5496 54.4324 65.0272 55.6251 65.8812 55.6251C66.4209 55.6251 66.7986 55.1475 66.9874 54.5445C66.0323 54.2679 65.2404 53.4139 65.2404 52.27C65.2404 51.3026 65.8057 50.6996 66.522 50.6996C67.2006 50.6996 68.0924 51.2527 68.0924 52.7731C68.0924 53.2251 68.0168 53.6783 67.8792 54.0803C68.6711 54.0304 69.2485 53.4773 69.4118 52.2834L69.7639 52.3211C69.5507 54.168 68.4944 54.6334 67.6404 54.6334C67.2006 55.4874 66.4465 56.2537 65.467 56.2537C64.3985 56.2537 63.4069 55.3486 63.4069 53.8659C63.4069 52.7475 63.9843 51.7802 64.9894 51.3904V51.3916ZM67.1385 53.5272C67.1385 52.4722 66.6731 51.4293 66.159 51.4293C65.8203 51.4293 65.7192 51.8813 65.7192 52.1956C65.7192 52.9619 66.31 53.7039 67.1141 53.967C67.1263 53.8294 67.1397 53.6783 67.1397 53.5272H67.1385Z" fill="#0D331E"/>
<path d="M68.7088 54.2192C68.7088 53.3896 68.9976 52.5355 69.614 51.857C70.1671 51.2417 70.9712 50.7885 71.8252 50.7885C71.9629 50.7885 72.0896 50.8007 72.2272 50.8263C72.466 49.2182 72.6415 47.9987 72.7304 46.9059C73.0325 46.6927 73.5722 46.466 73.8366 46.466C74.012 46.466 74.101 46.5794 74.101 46.8181C74.101 47.2202 73.85 48.4263 73.6112 49.658C73.2847 51.3794 73.0459 53.2385 73.0459 54.207C73.0459 54.9989 73.197 55.6397 73.5491 55.6397C73.9633 55.6397 74.5542 54.7346 75.0061 52.2846L75.3448 52.3223C74.7917 55.4509 74.0133 56.2306 73.2214 56.2306C72.5805 56.2306 71.9141 55.7153 71.8898 54.3337L71.8642 54.3216C71.4122 55.6909 70.8335 56.2318 70.1805 56.2318C69.4264 56.2318 68.7101 55.5155 68.7101 54.2217L68.7088 54.2192ZM71.5487 54.1315C71.7996 53.3396 71.9763 52.3979 72.0884 51.6693C71.8618 51.4939 71.573 51.405 71.2843 51.405C70.97 51.405 70.6812 51.5183 70.4546 51.7071C70.0404 52.3102 69.8894 53.1776 69.8894 53.9061C69.8894 54.8491 70.1281 55.5898 70.5558 55.5898C70.8701 55.5898 71.2222 55.1378 71.5487 54.1327V54.1315Z" fill="#0D331E"/>
<path d="M74.2874 54.2314C74.2874 53.3262 74.6516 52.4344 75.2169 51.8058C75.7566 51.2027 76.5363 50.7885 77.4037 50.7885C77.9313 50.7885 78.4344 50.9396 78.912 51.2027C78.7743 51.9946 78.5599 53.3384 78.5599 54.218C78.5599 54.9965 78.7231 55.6373 79.0752 55.6373C79.4894 55.6373 80.0803 54.7321 80.5201 52.2821L80.8722 52.3199C80.3191 55.4607 79.5272 56.2282 78.7487 56.2282C78.0823 56.2282 77.4549 55.6751 77.366 54.4812H77.3404C76.9505 55.6629 76.3974 56.2282 75.7323 56.2282C74.9781 56.2282 74.2874 55.4875 74.2874 54.2302V54.2314ZM77.0638 54.1303C77.2904 53.4261 77.5158 52.4088 77.6547 51.6681C77.4159 51.5049 77.1272 51.4172 76.8506 51.4172C76.5241 51.4172 76.1976 51.5305 75.9455 51.7558C75.6567 52.2968 75.4557 53.1386 75.4557 53.9427C75.4557 54.8101 75.6945 55.5886 76.0965 55.5886C76.3987 55.5886 76.7373 55.1488 77.0638 54.1315V54.1303Z" fill="#0D331E"/>
<path d="M80.5189 52.0324C80.5189 51.6937 80.4933 51.4038 80.4312 51.2162C80.6322 51.0407 81.0342 50.8019 81.3108 50.8019C81.6251 50.8019 81.7628 51.1041 81.7628 51.5305C81.7628 52.1969 81.474 53.403 81.474 54.3325C81.474 55.1744 81.7128 55.5886 82.0649 55.5886C82.5924 55.5886 82.9823 54.659 83.2466 53.6028C83.4598 52.7232 83.5853 51.768 83.6109 51.165C83.8619 51.0017 84.3273 50.8007 84.5782 50.8007C84.7671 50.8007 84.8548 50.914 84.8548 51.1406C84.8548 51.2283 84.8426 51.3161 84.7671 51.857C84.4649 54.056 84.4527 54.5201 84.2639 55.8152C84.0251 57.4233 83.7486 58.2652 83.2966 58.856C82.8312 59.4591 81.9772 60 81.1354 60C80.1303 60 79.4261 59.2081 79.4261 58.3541C79.4261 57.7632 79.766 57.0846 80.2801 56.6582L80.4434 56.8093C80.2545 57.0481 80.1924 57.2869 80.1924 57.5878C80.1924 58.6051 80.9209 59.3848 81.7128 59.3848C82.2525 59.3848 82.618 59.0083 82.8434 58.4808C83.07 57.9533 83.1955 57.2247 83.2576 56.4828C83.321 55.8298 83.3331 55.1756 83.3331 54.6615H83.3076C83.0188 55.5411 82.378 56.2318 81.6617 56.2318C80.9453 56.2318 80.2923 55.5654 80.2923 54.4848C80.2923 53.8696 80.5189 53.0521 80.5189 52.0348V52.0324Z" fill="#0D331E"/>
<path d="M86.5116 54.6079C86.9636 54.6079 87.3279 54.9721 87.3279 55.4241C87.3279 55.8761 86.9636 56.2404 86.5116 56.2404C86.0596 56.2404 85.6954 55.8761 85.6954 55.4241C85.6954 54.9721 86.0596 54.6079 86.5116 54.6079Z" fill="#0D331E"/>
<path d="M90.3066 54.6079C90.7586 54.6079 91.1229 54.9721 91.1229 55.4241C91.1229 55.8761 90.7586 56.2404 90.3066 56.2404C89.8546 56.2404 89.4904 55.8761 89.4904 55.4241C89.4904 54.9721 89.8546 54.6079 90.3066 54.6079Z" fill="#0D331E"/>
<path d="M94.1003 54.6079C94.5523 54.6079 94.9166 54.9721 94.9166 55.4241C94.9166 55.8761 94.5523 56.2404 94.1003 56.2404C93.6484 56.2404 93.2841 55.8761 93.2841 55.4241C93.2841 54.9721 93.6484 54.6079 94.1003 54.6079Z" fill="#0D331E"/>
<path d="M97.8953 54.6079C98.3473 54.6079 98.7115 54.9721 98.7115 55.4241C98.7115 55.8761 98.3473 56.2404 97.8953 56.2404C97.4433 56.2404 97.079 55.8761 97.079 55.4241C97.079 54.9721 97.4433 54.6079 97.8953 54.6079Z" fill="#0D331E"/>
<path d="M101.689 54.6079C102.141 54.6079 102.505 54.9721 102.505 55.4241C102.505 55.8761 102.141 56.2404 101.689 56.2404C101.237 56.2404 100.873 55.8761 100.873 55.4241C100.873 54.9721 101.237 54.6079 101.689 54.6079Z" fill="#0D331E"/>
<path d="M105.483 54.6079C105.935 54.6079 106.299 54.9721 106.299 55.4241C106.299 55.8761 105.935 56.2404 105.483 56.2404C105.031 56.2404 104.667 55.8761 104.667 55.4241C104.667 54.9721 105.031 54.6079 105.483 54.6079Z" fill="#0D331E"/>
<path d="M109.278 54.6079C109.73 54.6079 110.094 54.9721 110.094 55.4241C110.094 55.8761 109.73 56.2404 109.278 56.2404C108.826 56.2404 108.461 55.8761 108.461 55.4241C108.461 54.9721 108.826 54.6079 109.278 54.6079Z" fill="#0D331E"/>
<path d="M113.071 54.6079C113.523 54.6079 113.888 54.9721 113.888 55.4241C113.888 55.8761 113.523 56.2404 113.071 56.2404C112.62 56.2404 112.255 55.8761 112.255 55.4241C112.255 54.9721 112.62 54.6079 113.071 54.6079Z" fill="#0D331E"/>
<path d="M116.866 54.6079C117.318 54.6079 117.683 54.9721 117.683 55.4241C117.683 55.8761 117.318 56.2404 116.866 56.2404C116.414 56.2404 116.05 55.8761 116.05 55.4241C116.05 54.9721 116.414 54.6079 116.866 54.6079Z" fill="#0D331E"/>
<path d="M120.66 54.6079C121.112 54.6079 121.476 54.9721 121.476 55.4241C121.476 55.8761 121.112 56.2404 120.66 56.2404C120.208 56.2404 119.844 55.8761 119.844 55.4241C119.844 54.9721 120.208 54.6079 120.66 54.6079Z" fill="#0D331E"/>
<path d="M124.455 54.6079C124.907 54.6079 125.271 54.9721 125.271 55.4241C125.271 55.8761 124.907 56.2404 124.455 56.2404C124.003 56.2404 123.639 55.8761 123.639 55.4241C123.639 54.9721 124.003 54.6079 124.455 54.6079Z" fill="#0D331E"/>
<path d="M128.249 54.6079C128.701 54.6079 129.065 54.9721 129.065 55.4241C129.065 55.8761 128.701 56.2404 128.249 56.2404C127.797 56.2404 127.433 55.8761 127.433 55.4241C127.433 54.9721 127.797 54.6079 128.249 54.6079Z" fill="#0D331E"/>
<path d="M132.044 54.6079C132.496 54.6079 132.86 54.9721 132.86 55.4241C132.86 55.8761 132.496 56.2404 132.044 56.2404C131.592 56.2404 131.228 55.8761 131.228 55.4241C131.228 54.9721 131.592 54.6079 132.044 54.6079Z" fill="#0D331E"/>
<path d="M135.838 54.6079C136.29 54.6079 136.654 54.9721 136.654 55.4241C136.654 55.8761 136.29 56.2404 135.838 56.2404C135.386 56.2404 135.021 55.8761 135.021 55.4241C135.021 54.9721 135.386 54.6079 135.838 54.6079Z" fill="#0D331E"/>
<path d="M139.631 54.6079C140.083 54.6079 140.448 54.9721 140.448 55.4241C140.448 55.8761 140.083 56.2404 139.631 56.2404C139.179 56.2404 138.815 55.8761 138.815 55.4241C138.815 54.9721 139.179 54.6079 139.631 54.6079Z" fill="#0D331E"/>
<path d="M143.426 54.6079C143.878 54.6079 144.243 54.9721 144.243 55.4241C144.243 55.8761 143.878 56.2404 143.426 56.2404C142.974 56.2404 142.61 55.8761 142.61 55.4241C142.61 54.9721 142.974 54.6079 143.426 54.6079Z" fill="#0D331E"/>
<path d="M145.55 53.8671C145.55 52.6988 145.902 50.8263 146.328 49.2681C146.479 48.715 146.756 47.7854 147.095 47.0313C147.497 46.7304 148.062 46.4405 148.251 46.4405C148.301 46.4405 148.364 46.4526 148.414 46.4904C148.892 46.7414 149.118 47.7221 149.118 48.4762C149.118 49.9711 148.251 51.818 146.819 52.3589C146.769 52.862 146.732 53.3518 146.732 53.7782C146.732 55.1098 147.084 55.6629 147.498 55.6629C147.912 55.6629 148.742 55.072 149.245 52.2834L149.597 52.3211C149.446 53.7782 148.654 56.2294 147.121 56.2294C146.455 56.2294 145.551 55.764 145.551 53.8671H145.55ZM148.34 49.0427C148.34 48.4652 148.214 47.8366 147.925 47.3846C147.712 47.9877 147.549 48.553 147.41 49.156C147.221 49.9345 147.02 50.9152 146.883 51.8825C147.812 51.5183 148.34 50.2488 148.34 49.0427Z" fill="#0D331E"/>
<path d="M149.797 51.4038C150.236 51.0395 150.79 50.7751 151.305 50.7751C151.908 50.7751 152.284 51.1394 152.284 51.6803C152.284 52.1457 151.996 52.6233 151.58 52.9741C151.14 53.3506 150.399 53.7027 149.746 53.8659C149.821 54.9343 150.336 55.6251 151.039 55.6251C151.893 55.6251 152.912 54.5823 153.352 52.2821L153.704 52.3199C153.201 55.0964 151.869 56.2282 150.651 56.2282C149.596 56.2282 148.565 55.3985 148.565 53.9536C148.565 53.0862 148.941 52.1067 149.797 51.4025V51.4038ZM151.317 51.969C151.317 51.6048 151.154 51.3916 150.865 51.3916C150.513 51.3916 150.212 51.6937 150.011 52.1579C149.848 52.5477 149.76 53.0375 149.747 53.4395C150.4 53.3018 151.317 52.8486 151.317 51.969Z" fill="#0D331E"/>
<path d="M152.649 54.2314C152.649 53.3262 153.013 52.4344 153.578 51.8058C154.119 51.2027 154.898 50.7885 155.765 50.7885C156.293 50.7885 156.796 50.9396 157.273 51.2027C157.136 51.9946 156.921 53.3384 156.921 54.218C156.921 54.9965 157.085 55.6373 157.437 55.6373C157.851 55.6373 158.442 54.7321 158.881 52.2821L159.234 52.3199C158.68 55.4607 157.889 56.2282 157.11 56.2282C156.444 56.2282 155.816 55.6751 155.729 54.4812H155.703C155.313 55.6629 154.76 56.2282 154.095 56.2282C153.341 56.2282 152.65 55.4875 152.65 54.2302L152.649 54.2314ZM155.425 54.1303C155.652 53.4261 155.877 52.4088 156.016 51.6681C155.777 51.5049 155.489 51.4172 155.212 51.4172C154.886 51.4172 154.559 51.5305 154.307 51.7558C154.018 52.2968 153.817 53.1386 153.817 53.9427C153.817 54.8101 154.056 55.5886 154.458 55.5886C154.76 55.5886 155.099 55.1488 155.425 54.1315V54.1303Z" fill="#0D331E"/>
<path d="M158.176 54.2192C158.176 53.3896 158.465 52.5355 159.081 51.857C159.634 51.2417 160.438 50.7885 161.292 50.7885C161.43 50.7885 161.557 50.8007 161.694 50.8263C161.933 49.2182 162.109 47.9987 162.198 46.9059C162.499 46.6927 163.039 46.466 163.304 46.466C163.479 46.466 163.568 46.5794 163.568 46.8181C163.568 47.2202 163.317 48.4263 163.078 49.658C162.752 51.3794 162.513 53.2385 162.513 54.207C162.513 54.9989 162.664 55.6397 163.016 55.6397C163.431 55.6397 164.021 54.7346 164.473 52.2846L164.812 52.3223C164.259 55.4509 163.48 56.2306 162.689 56.2306C162.048 56.2306 161.381 55.7153 161.357 54.3337L161.331 54.3216C160.879 55.6909 160.301 56.2318 159.648 56.2318C158.894 56.2318 158.177 55.5155 158.177 54.2217L158.176 54.2192ZM161.016 54.1315C161.267 53.3396 161.444 52.3979 161.556 51.6693C161.329 51.4939 161.04 51.405 160.752 51.405C160.437 51.405 160.148 51.5183 159.922 51.7071C159.508 52.3102 159.357 53.1776 159.357 53.9061C159.357 54.8491 159.595 55.5898 160.023 55.5898C160.337 55.5898 160.689 55.1378 161.016 54.1327V54.1315Z" fill="#0D331E"/>
<path d="M164.584 51.165C164.835 51.0017 165.301 50.8007 165.552 50.8007C165.74 50.8007 165.828 50.914 165.828 51.1406C165.828 51.3294 165.74 51.7814 165.653 52.2968C165.539 52.9498 165.414 53.7295 165.414 54.3703C165.414 55.0111 165.565 55.6397 165.917 55.6397C166.331 55.6397 166.922 54.7857 167.374 52.2846L167.726 52.3224C167.161 55.4631 166.381 56.2172 165.577 56.2172C164.861 56.2172 164.246 55.6263 164.246 54.3325C164.246 53.4407 164.484 52.2346 164.584 51.1662V51.165ZM164.986 49.0159C164.986 48.6017 165.301 48.2752 165.715 48.2752C166.129 48.2752 166.456 48.6017 166.456 49.0159C166.456 49.4301 166.129 49.7445 165.715 49.7445C165.301 49.7445 164.986 49.418 164.986 49.0159Z" fill="#0D331E"/>
<path d="M167.172 54.4824C167.172 53.3762 167.411 52.2334 167.486 51.165C167.737 51.0017 168.203 50.8007 168.454 50.8007C168.642 50.8007 168.73 50.914 168.73 51.1406C168.73 51.4549 168.567 52.1579 168.441 52.9753C168.391 53.3152 168.354 53.6539 168.328 53.9183H168.366C168.756 52.0592 169.635 50.8896 170.64 50.7398C171.13 50.8653 171.546 51.1162 171.846 51.5061C171.671 52.3223 171.407 53.2275 171.407 54.2326C171.407 55.0367 171.57 55.6397 171.922 55.6397C172.324 55.6397 172.915 54.7857 173.367 52.2846L173.719 52.3223C173.154 55.4765 172.362 56.2172 171.57 56.2172C170.879 56.2172 170.213 55.6263 170.213 54.2314C170.213 53.2385 170.501 52.1457 170.501 51.8192C170.501 51.6559 170.452 51.5171 170.25 51.5171C170.099 51.5171 169.948 51.6048 169.799 51.7437C169.484 52.058 169.17 52.6111 168.945 53.2641C168.656 54.1059 168.493 55.161 168.505 55.9407C168.204 56.1039 167.889 56.1916 167.751 56.1916C167.235 56.1916 167.173 55.0732 167.173 54.4824H167.172Z" fill="#0D331E"/>
<path d="M172.964 56.8824C172.75 57.109 172.663 57.3721 172.663 57.6986C172.663 58.6038 173.329 59.3823 174.12 59.3823C174.673 59.3823 175.025 59.0059 175.238 58.5027C175.716 57.4099 175.678 55.4875 175.741 54.6079L175.716 54.5957C175.351 55.6641 174.786 56.1782 174.158 56.1782C173.403 56.1782 172.7 55.4497 172.7 54.1924C172.7 53.3384 173.027 52.471 173.58 51.8423C174.108 51.2393 174.874 50.7873 175.741 50.7873C176.281 50.7873 176.848 50.9627 177.262 51.2527C177.035 52.6732 176.86 54.5445 176.671 55.814C176.444 57.3466 176.181 58.2018 175.691 58.8426C175.176 59.5212 174.36 59.9988 173.58 59.9988C172.601 59.9988 171.871 59.2325 171.871 58.3784C171.871 57.7376 172.273 57.109 172.814 56.7204L172.965 56.8836L172.964 56.8824ZM175.515 54.0426C175.716 53.3762 175.879 52.4722 175.942 51.6681C175.741 51.4927 175.477 51.4038 175.226 51.4038C174.975 51.4038 174.661 51.4793 174.422 51.6803C174.145 52.0446 173.869 52.9498 173.869 53.8793C173.869 54.8089 174.158 55.5508 174.51 55.5508C174.798 55.5508 175.2 55.0854 175.515 54.0426Z" fill="#0D331E"/>
<path d="M180.226 51.2917L179.522 51.3295C179.484 51.2539 179.472 51.1784 179.472 51.1029C179.472 51.0395 179.484 50.9518 179.497 50.914L180.301 50.8763C180.502 49.6945 180.54 49.3558 180.641 48.8283C180.918 48.6529 181.395 48.4385 181.646 48.4385C181.822 48.4385 181.897 48.5262 181.897 48.7028C181.897 48.9794 181.684 49.9089 181.507 50.8141L182.94 50.7008C182.978 50.7642 183.004 50.8385 183.004 50.914C183.004 50.9896 182.978 51.0773 182.916 51.1784L181.421 51.2417C181.27 52.1457 181.157 53.0509 181.157 53.805C181.157 55.0866 181.445 55.6641 181.873 55.6641C182.426 55.6641 183.192 54.6968 183.607 52.2846L183.959 52.3224C183.356 55.8529 182.174 56.2306 181.533 56.2306C180.829 56.2306 179.912 55.7786 179.912 53.9317C179.912 53.1776 180.063 52.2359 180.226 51.2929V51.2917Z" fill="#0D331E"/>
<path d="M184.511 51.3916L184.636 51.6425C184.208 51.969 184.071 52.6598 184.071 53.2884C184.071 54.4324 184.548 55.6251 185.402 55.6251C185.942 55.6251 186.32 55.1475 186.509 54.5445C185.553 54.2679 184.761 53.4139 184.761 52.27C184.761 51.3026 185.327 50.6996 186.043 50.6996C186.722 50.6996 187.613 51.2527 187.613 52.7731C187.613 53.2251 187.538 53.6783 187.4 54.0803C188.192 54.0304 188.77 53.4773 188.933 52.2834L189.285 52.3211C189.072 54.168 188.016 54.6334 187.162 54.6334C186.722 55.4874 185.968 56.2537 184.988 56.2537C183.92 56.2537 182.928 55.3486 182.928 53.8659C182.928 52.7475 183.505 51.7802 184.511 51.3904V51.3916ZM186.66 53.5272C186.66 52.4722 186.194 51.4293 185.679 51.4293C185.34 51.4293 185.239 51.8813 185.239 52.1956C185.239 52.9619 185.83 53.7039 186.634 53.967C186.646 53.8294 186.66 53.6783 186.66 53.5272Z" fill="#0D331E"/>
<path d="M188.732 54.4958C188.732 53.3652 188.971 52.2468 189.046 51.1662C189.297 51.0029 189.763 50.8019 190.014 50.8019C190.202 50.8019 190.29 50.9152 190.29 51.1418C190.29 51.3684 190.189 51.9203 190.039 52.7122C189.951 53.1898 189.888 53.604 189.864 53.9061H189.901C190.303 52.047 191.157 50.8909 192.163 50.7398C192.69 50.8653 193.08 51.1418 193.369 51.5061C193.193 52.3223 192.879 53.3786 192.866 54.3337H192.903C193.406 52.0214 194.286 50.8909 195.291 50.7398C195.856 50.8775 196.246 51.1418 196.509 51.5061C196.321 52.3223 196.057 53.2275 196.057 54.2326C196.057 55.0367 196.233 55.6397 196.573 55.6397C196.975 55.6397 197.566 54.7857 198.018 52.2846L198.37 52.3223C197.817 55.4765 197.013 56.2172 196.234 56.2172C195.53 56.2172 194.865 55.6263 194.865 54.2314C194.865 53.2519 195.191 52.1457 195.191 51.8192C195.191 51.6559 195.116 51.5171 194.915 51.5171C194.764 51.5171 194.613 51.6048 194.463 51.7437C194.148 52.0458 193.834 52.6233 193.609 53.2641C193.332 54.056 193.169 55.0355 193.169 55.8773C192.905 56.0905 192.679 56.1916 192.502 56.1916C191.975 56.1916 191.748 55.2243 191.748 54.3325C191.748 53.2775 192.063 52.1457 192.063 51.8192C192.063 51.6681 191.987 51.5171 191.786 51.5171C191.635 51.5171 191.485 51.6048 191.334 51.7437C191.02 52.0458 190.706 52.6233 190.48 53.2641C190.178 54.1181 190.015 55.161 190.04 55.9407C189.739 56.1039 189.449 56.1916 189.312 56.1916C188.796 56.1916 188.734 55.0732 188.734 54.4958H188.732Z" fill="#0D331E"/>
<path d="M198.935 51.3916L199.061 51.6425C198.633 51.969 198.495 52.6598 198.495 53.2884C198.495 54.4324 198.973 55.6251 199.827 55.6251C200.367 55.6251 200.744 55.1475 200.933 54.5445C199.978 54.2679 199.186 53.4139 199.186 52.27C199.186 51.3026 199.751 50.6996 200.468 50.6996C201.146 50.6996 202.038 51.2527 202.038 52.7731C202.038 53.2251 201.962 53.6783 201.825 54.0803C202.617 54.0304 203.194 53.4773 203.357 52.2834L203.709 52.3211C203.496 54.168 202.44 54.6334 201.586 54.6334C201.146 55.4874 200.392 56.2537 199.413 56.2537C198.344 56.2537 197.352 55.3486 197.352 53.8659C197.352 52.7475 197.93 51.7802 198.935 51.3904V51.3916ZM201.084 53.5272C201.084 52.4722 200.619 51.4293 200.103 51.4293C199.765 51.4293 199.664 51.8813 199.664 52.1956C199.664 52.9619 200.254 53.7039 201.058 53.967C201.071 53.8294 201.084 53.6783 201.084 53.5272Z" fill="#0D331E"/>
<path d="M202.993 55.3875C202.993 54.7211 203.357 53.0131 203.357 51.7315C203.357 51.4927 203.345 51.3416 203.32 51.1662C203.571 51.0029 204.024 50.8019 204.263 50.8019C204.539 50.8019 204.589 51.0906 204.589 51.3928C204.589 51.8959 204.426 52.6367 204.313 53.0765L204.35 53.0886C204.84 51.7315 205.381 50.7897 206.11 50.7897C206.599 50.7897 206.888 51.1284 206.888 51.5183C206.888 51.9081 206.561 52.1969 206.147 52.3479C206.06 52.0336 205.921 51.8704 205.707 51.8704C205.343 51.8704 204.941 52.3857 204.615 53.2897C204.326 54.0937 204.175 54.9989 204.137 56.0418C203.873 56.1429 203.61 56.255 203.446 56.255C203.108 56.255 202.994 55.7652 202.994 55.3875H202.993Z" fill="#0D331E"/>
<path d="M206.964 55.3875C206.964 54.7211 207.328 53.0131 207.328 51.7315C207.328 51.4927 207.316 51.3416 207.29 51.1662C207.541 51.0029 207.994 50.8019 208.233 50.8019C208.51 50.8019 208.56 51.0906 208.56 51.3928C208.56 51.8959 208.396 52.6367 208.283 53.0765L208.321 53.0886C208.81 51.7315 209.351 50.7897 210.08 50.7897C210.57 50.7897 210.858 51.1284 210.858 51.5183C210.858 51.9081 210.532 52.1969 210.118 52.3479C210.03 52.0336 209.891 51.8704 209.678 51.8704C209.314 51.8704 208.912 52.3857 208.585 53.2897C208.296 54.0937 208.145 54.9989 208.108 56.0418C207.843 56.1429 207.58 56.255 207.417 56.255C207.078 56.255 206.965 55.7652 206.965 55.3875H206.964Z" fill="#0D331E"/>
<path d="M212.216 51.3916L212.341 51.6425C211.913 51.969 211.776 52.6598 211.776 53.2884C211.776 54.4324 212.253 55.6251 213.107 55.6251C213.647 55.6251 214.025 55.1475 214.214 54.5445C213.258 54.2679 212.467 53.4139 212.467 52.27C212.467 51.3026 213.032 50.6996 213.748 50.6996C214.427 50.6996 215.319 51.2527 215.319 52.7731C215.319 53.2251 215.243 53.6783 215.105 54.0803C215.897 54.0304 216.475 53.4773 216.638 52.2834L216.99 52.3211C216.777 54.168 215.721 54.6334 214.867 54.6334C214.427 55.4874 213.673 56.2537 212.693 56.2537C211.625 56.2537 210.633 55.3486 210.633 53.8659C210.633 52.7475 211.21 51.7802 212.216 51.3904V51.3916ZM214.365 53.5272C214.365 52.4722 213.899 51.4293 213.384 51.4293C213.045 51.4293 212.944 51.8813 212.944 52.1956C212.944 52.9619 213.535 53.7039 214.339 53.967C214.351 53.8294 214.365 53.6783 214.365 53.5272Z" fill="#0D331E"/>
<path d="M216.75 51.1784C216.977 51.0273 217.454 50.8019 217.717 50.8019C217.893 50.8019 217.968 50.8896 217.968 51.0907C217.968 51.1918 217.943 51.3672 217.893 51.6438C217.779 52.2846 217.642 53.1142 217.642 53.7928C217.642 54.6724 217.868 55.6397 218.509 55.6397C218.786 55.6397 219.087 55.4509 219.325 55.1744C218.999 54.5835 218.836 53.8428 218.836 53.1386C218.836 52.0458 219.25 51.0273 219.992 51.0273C220.469 51.0273 220.77 51.4415 220.77 52.2334C220.77 52.8864 220.569 53.8038 220.18 54.5957C220.456 55.161 220.833 55.5886 221.323 55.5886C221.914 55.5886 222.379 54.9478 222.617 54.1315C221.738 53.855 221.147 53.0509 221.147 52.1457C221.147 51.2405 221.674 50.3487 222.454 50.3487C223.234 50.3487 223.698 51.3039 223.698 52.2712C223.698 52.7232 223.61 53.2141 223.447 53.6917C224.277 53.6917 224.792 53.2397 225.131 52.8499L225.382 53.0765C224.841 53.8428 224.074 54.2326 223.233 54.2326C222.83 55.1999 221.989 56.2428 220.934 56.2428C220.356 56.2428 219.903 55.9541 219.564 55.5264C219.174 55.9541 218.697 56.2306 218.132 56.2306C217.202 56.2306 216.422 55.4765 216.422 53.9695C216.422 53.0399 216.623 52.1225 216.749 51.1796L216.75 51.1784ZM219.942 53.9926H219.968C220.081 53.6405 220.169 53.2141 220.169 52.7865C220.169 52.259 220.043 51.7814 219.816 51.5682C219.729 51.7059 219.691 52.1079 219.691 52.4101C219.691 52.8876 219.779 53.4785 219.942 53.9926ZM222.744 53.5406C222.782 53.314 222.794 53.1008 222.794 52.8742C222.794 52.0702 222.567 51.0894 222.09 51.0894C221.788 51.0894 221.65 51.4915 221.65 51.8813C221.65 52.4966 222.026 53.2263 222.743 53.5394L222.744 53.5406Z" fill="#0D331E"/>
</svg>
